<svg width="54" height="55" viewBox="0 0 54 55" fill="none" xmlns="http://www.w3.org/2000/svg">
<g clip-path="url(#clip0_345_336)">
<path d="M27 0.5C12.1122 0.5 0 12.6122 0 27.5C0 42.3878 12.1122 54.5 27 54.5C41.8878 54.5 54 42.3878 54 27.5C54 12.6122 41.8878 0.5 27 0.5ZM36.4311 19.4C36.9694 19.3863 37.5051 19.4804 38.0064 19.677C38.5078 19.8735 38.9647 20.1685 39.3503 20.5444C39.7358 20.9204 40.0422 21.3697 40.2513 21.866C40.4604 22.3622 40.5681 22.8953 40.5679 23.4338C40.5677 23.9723 40.4597 24.5054 40.2503 25.0015C40.0408 25.4976 39.7341 25.9467 39.3483 26.3224C38.9625 26.6981 38.5054 26.9928 38.0039 27.189C37.5024 27.3852 36.9667 27.479 36.4284 27.4649C35.377 27.4373 34.3779 27.0002 33.6442 26.2467C32.9104 25.4932 32.4999 24.4829 32.5003 23.4311C32.5006 22.3794 32.9118 21.3693 33.6461 20.6163C34.3803 19.8633 35.3797 19.4269 36.4311 19.4ZM17.55 19.4C18.082 19.4002 18.6088 19.5051 19.1003 19.7089C19.5917 19.9127 20.0383 20.2112 20.4143 20.5876C20.7904 20.9639 21.0887 21.4106 21.2921 21.9022C21.4956 22.3938 21.6002 22.9207 21.6 23.4527C21.5998 23.9847 21.4949 24.5115 21.2911 25.003C21.0873 25.4944 20.7888 25.941 20.4124 26.317C20.0361 26.6931 19.5894 26.9914 19.0978 27.1948C18.6062 27.3983 18.0793 27.5029 17.5473 27.5027C16.4728 27.5023 15.4425 27.0752 14.683 26.3151C13.9234 25.5551 13.4969 24.5245 13.4973 23.45C13.4977 22.3755 13.9248 21.3452 14.6849 20.5857C15.4449 19.8261 16.4755 19.3996 17.55 19.4ZM27 43.7C16.2 43.7 13.5 32.9 13.5 32.9H40.5C40.5 32.9 37.8 43.7 27 43.7Z" fill="url(#paint0_linear_345_336)"/>
</g>
<defs>
<linearGradient id="paint0_linear_345_336" x1="5.41155e-08" y1="22.9772" x2="42.2132" y2="49.2919" gradientUnits="userSpaceOnUse">
<stop stop-color="#80DF8F"/>
<stop offset="1" stop-color="#6DE9DA"/>
</linearGradient>
<clipPath id="clip0_345_336">
<rect width="54" height="54" fill="white" transform="translate(0 0.5)"/>
</clipPath>
</defs>
</svg>
