<svg width="54" height="55" viewBox="0 0 54 55" fill="none" xmlns="http://www.w3.org/2000/svg">
<g clip-path="url(#clip0_345_338)">
<path d="M27 0.5C12.1122 0.5 0 12.6122 0 27.5C0 42.3878 12.1122 54.5 27 54.5C41.8878 54.5 54 42.3878 54 27.5C54 12.6122 41.8878 0.5 27 0.5ZM13.5 23.45C13.5004 22.3755 13.9275 21.3452 14.6876 20.5857C15.0639 20.2096 15.5106 19.9113 16.0022 19.7079C16.4938 19.5044 17.0207 19.3998 17.5527 19.4C18.0847 19.4002 18.6115 19.5051 19.103 19.7089C19.5944 19.9127 20.041 20.2112 20.417 20.5876C20.7931 20.9639 21.0914 21.4106 21.2948 21.9022C21.4983 22.3938 21.6029 22.9207 21.6027 23.4527C21.6023 24.5272 21.1752 25.5575 20.4151 26.317C19.6551 27.0766 18.6245 27.5031 17.55 27.5027C16.4755 27.5023 15.4452 27.0752 14.6857 26.3151C13.9261 25.5551 13.4996 24.5245 13.5 23.45ZM37.8 41H16.1298V35.6H37.8V41ZM36.4311 27.4622C35.8928 27.476 35.3571 27.3818 34.8558 27.1852C34.3544 26.9887 33.8975 26.6937 33.5119 26.3178C33.1264 25.9418 32.82 25.4925 32.6109 24.9962C32.4018 24.5 32.2941 23.9669 32.2943 23.4284C32.2945 22.8899 32.4025 22.3568 32.6119 21.8607C32.8214 21.3646 33.1281 20.9155 33.5139 20.5398C33.8997 20.1641 34.3568 19.8694 34.8583 19.6732C35.3598 19.477 35.8955 19.3832 36.4338 19.3973C37.4852 19.4249 38.4843 19.862 39.218 20.6155C39.9518 21.369 40.3623 22.3793 40.3619 23.4311C40.3616 24.4828 39.9504 25.4929 39.2161 26.2459C38.4819 26.9989 37.4825 27.4353 36.4311 27.4622Z" fill="url(#paint0_linear_345_338)"/>
</g>
<defs>
<linearGradient id="paint0_linear_345_338" x1="27" y1="0.5" x2="27" y2="54.5" gradientUnits="userSpaceOnUse">
<stop stop-color="#FFE600"/>
<stop offset="1" stop-color="#FFD699"/>
</linearGradient>
<clipPath id="clip0_345_338">
<rect width="54" height="54" fill="white" transform="translate(0 0.5)"/>
</clipPath>
</defs>
</svg>
