<svg width="54" height="55" viewBox="0 0 54 55" fill="none" xmlns="http://www.w3.org/2000/svg">
<g clip-path="url(#clip0_345_334)">
<path fill-rule="evenodd" clip-rule="evenodd" d="M33 39.5H36C36 34.5294 31.9706 30.5 27 30.5C22.0294 30.5 18 34.5294 18 39.5H21C21 36.1863 23.6863 33.5 27 33.5C30.3137 33.5 33 36.1863 33 39.5ZM27 54.5C41.9117 54.5 54 42.4117 54 27.5C54 12.5883 41.9117 0.5 27 0.5C12.0883 0.5 0 12.5883 0 27.5C0 42.4117 12.0883 54.5 27 54.5ZM18 24.5C19.6569 24.5 21 23.1569 21 21.5C21 19.8431 19.6569 18.5 18 18.5C16.3431 18.5 15 19.8431 15 21.5C15 23.1569 16.3431 24.5 18 24.5ZM36 24.5C37.6569 24.5 39 23.1569 39 21.5C39 19.8431 37.6569 18.5 36 18.5C34.3431 18.5 33 19.8431 33 21.5C33 23.1569 34.3431 24.5 36 24.5Z" fill="url(#paint0_linear_345_334)"/>
</g>
<defs>
<linearGradient id="paint0_linear_345_334" x1="27" y1="0.5" x2="27" y2="54.5" gradientUnits="userSpaceOnUse">
<stop stop-color="#F71416"/>
<stop offset="1" stop-color="#FF6969"/>
</linearGradient>
<clipPath id="clip0_345_334">
<rect width="54" height="54" fill="white" transform="translate(0 0.5)"/>
</clipPath>
</defs>
</svg>
